<svg width="52" height="52" viewBox="0 0 52 52" fill="none" xmlns="http://www.w3.org/2000/svg">
<path d="M45.1583 2.33203H38.8534C36.1298 2.33203 34.5 3.96188 34.5 6.68543V12.9904C34.5 15.7139 36.1298 17.3438 38.8534 17.3438H45.1583C47.8819 17.3438 49.5117 15.7139 49.5117 12.9904V6.68543C49.5117 3.96188 47.8819 2.33203 45.1583 2.33203ZM45.6301 9.43043C45.3728 9.68777 45.0296 9.81645 44.6865 9.81645C44.3434 9.81645 44.0003 9.68777 43.7429 9.43043L43.3569 9.04442V13.8482C43.3569 14.5988 42.7564 15.1992 42.0059 15.1992C41.2553 15.1992 40.6548 14.5988 40.6548 13.8482V9.04442L40.2688 9.43043C39.7541 9.94512 38.8963 9.94512 38.3816 9.43043C37.8669 8.91574 37.8669 8.05793 38.3816 7.54324L41.0623 4.86258C41.1695 4.75535 41.3196 4.66957 41.4697 4.60523C41.5126 4.58379 41.5555 4.58379 41.5984 4.56234C41.7056 4.51945 41.8129 4.49801 41.9415 4.49801H42.0702C42.2203 4.49801 42.349 4.51945 42.4991 4.58379H42.542C42.6921 4.64813 42.8208 4.73391 42.928 4.84113C42.9495 4.86258 42.9495 4.86258 42.9709 4.86258L45.6516 7.54324C46.1663 8.05793 46.1663 8.91574 45.6301 9.43043Z" fill="#748394"/>
<path d="M19.4888 22.4482C22.3077 22.4482 24.5927 20.1631 24.5927 17.3442C24.5927 14.5254 22.3077 12.2402 19.4888 12.2402C16.6699 12.2402 14.3848 14.5254 14.3848 17.3442C14.3848 20.1631 16.6699 22.4482 19.4888 22.4482Z" fill="#748394"/>
<path d="M45.1583 17.3438H44.1504V27.23L43.8716 26.9941C42.1989 25.5573 39.4968 25.5573 37.824 26.9941L28.9028 34.6501C27.23 36.087 24.5279 36.087 22.8552 34.6501L22.1261 34.0496C20.6034 32.72 18.1801 32.5914 16.4645 33.7494L8.44395 39.1322C7.97215 37.9312 7.69336 36.5373 7.69336 34.9075V16.9363C7.69336 10.8887 10.8887 7.69336 16.9363 7.69336H34.5V6.68543C34.5 5.82762 34.6501 5.09848 34.9932 4.47656H16.9363C9.13019 4.47656 4.47656 9.13019 4.47656 16.9363V34.9075C4.47656 37.245 4.88402 39.2823 5.6775 40.9979C7.5218 45.0725 11.4677 47.3672 16.9363 47.3672H34.9075C42.7136 47.3672 47.3672 42.7136 47.3672 34.9075V16.8505C46.7453 17.1936 46.0161 17.3438 45.1583 17.3438Z" fill="#748394"/>
</svg>
